<svg xmlns="http://www.w3.org/2000/svg" viewBox="0 0 128 128" role="img" aria-label="South India Coffee Shop favicon">
  <defs>
    <linearGradient id="bg" x1="0" x2="1" y1="0" y2="1">
      <stop offset="0%" stop-color="#8a4e2d"/>
      <stop offset="100%" stop-color="#4d2a1c"/>
    </linearGradient>
    <linearGradient id="cup" x1="0" x2="1" y1="0" y2="1">
      <stop offset="0%" stop-color="#fffaf3"/>
      <stop offset="100%" stop-color="#f3d8b4"/>
    </linearGradient>
  </defs>

  <rect x="4" y="4" width="120" height="120" rx="28" fill="url(#bg)"/>

  <path d="M36 46h46c11 0 20 9 20 20v7c0 17-14 31-31 31H54c-17 0-31-14-31-31v-7c0-11 9-20 20-20z" fill="url(#cup)"/>
  <path d="M102 53h7c8 0 15 7 15 15s-7 15-15 15h-7V53z" fill="#f7c98c" opacity="0.95"/>
  <path d="M86 58c0-9-7-16-16-16H50c-9 0-16 7-16 16" fill="none" stroke="#f9e6cb" stroke-width="6" stroke-linecap="round"/>

  <path d="M38 33c-3 7-6 12-10 18" fill="none" stroke="#f8e1bb" stroke-width="5" stroke-linecap="round"/>
  <path d="M56 24c-3 9-5 15-7 22" fill="none" stroke="#f8e1bb" stroke-width="5" stroke-linecap="round"/>
  <path d="M76 29c-2 8-4 14-7 22" fill="none" stroke="#f8e1bb" stroke-width="5" stroke-linecap="round"/>

  <path d="M37 88h42c5 0 9 4 9 9v3H28v-3c0-5 4-9 9-9z" fill="#663922"/>
  <path d="M23 97h66" stroke="#f7e9d5" stroke-width="6" stroke-linecap="round" opacity="0.9"/>
</svg>
